<!--?xml version="1.0" encoding="utf-8"?-->
<!-- Generator: Adobe Illustrator 18.0.0, SVG Export Plug-In . SVG Version: 6.00 Build 0)  -->

<svg version="1.1" id="_x32_" xmlns="http://www.w3.org/2000/svg" xmlns:xlink="http://www.w3.org/1999/xlink" x="0px" y="0px" viewBox="0 0 512 512" style="width: 32px; height: 32px; opacity: 1;" xml:space="preserve">
<style type="text/css">
	.st0{fill:#4B4B4B;}
</style>
<g>
	<path class="st0" d="M404.33,128.681c-0.378,0-0.754,0.01-1.132,0.014V78.78H0v152.842C0,342.963,90.258,433.22,201.599,433.22
		c71.822,0,134.86-37.563,170.569-94.108c10.161,3.187,20.964,4.907,32.162,4.907c59.369,0,107.67-48.3,107.67-107.669
		C512,176.982,463.699,128.681,404.33,128.681z M404.33,282.792c-2.562,0-5.074-0.218-7.524-0.619
		c4.172-16.155,6.392-33.094,6.392-50.552v-41.683c0.378-0.009,0.752-0.029,1.132-0.029c25.608,0,46.441,20.834,46.441,46.442
		C450.772,261.958,429.938,282.792,404.33,282.792z" style="fill: rgb(255, 255, 255);"></path>
</g>
</svg>
